<?xml version="1.0" encoding="utf-8"?>
<!-- Generator: Adobe Illustrator 26.0.2, SVG Export Plug-In . SVG Version: 6.00 Build 0)  -->
<svg version="1.1" id="Layer_1" xmlns="http://www.w3.org/2000/svg" xmlns:xlink="http://www.w3.org/1999/xlink" x="0px" y="0px"
	 viewBox="0 0 324 108" style="enable-background:new 0 0 324 108;" xml:space="preserve">
<style type="text/css">
	.st0{fill:#FFFFFF;}
</style>
<g>
	<path class="st0" d="M41.61,96.8c-3.14,0.18-5.96-0.32-8.45-1.5c-2.5-1.18-3.98-2.95-4.45-5.32L18.13,36.51
		c-2.07,0.67-4.16,0.89-6.29,0.65c-2.13-0.24-3.88-0.77-5.27-1.6c-1.39-0.82-2.31-1.92-2.76-3.28c-0.45-1.36-0.1-2.82,1.06-4.37
		c1.24-1.74,2.83-3.31,4.75-4.7c1.93-1.39,4-2.64,6.23-3.74c2.23-1.1,4.56-2.11,7.01-3.04c2.44-0.92,4.81-1.79,7.1-2.59
		c6.44-2.06,12.98-3.56,19.65-4.48c6.66-0.92,13.1-1.12,19.32-0.59C75.15,9.31,81,10.62,86.49,12.7c5.48,2.08,10.21,5.11,14.17,9.07
		c2.43,2.42,4.36,5.06,5.78,7.9c1.42,2.84,2.49,5.78,3.21,8.8c0.9,3.96,1.02,7.94,0.35,11.94c-0.67,4.01-2.1,7.92-4.28,11.73
		c-2.18,3.82-5.02,7.39-8.51,10.72c-3.5,3.33-7.55,6.33-12.16,9c-4.07,2.3-8.48,4.27-13.22,5.92c-4.75,1.64-9.43,3.18-14.03,4.62
		c-2.3,0.72-4.75,1.49-7.34,2.31c-2.59,0.82-5.12,1.47-7.59,1.96L41.61,96.8z M47.33,25.59c-1.53,0.3-2.96,0.63-4.3,0.98
		c-1.34,0.35-2.75,0.77-4.25,1.24l10.07,50.93c0.71-0.14,1.28-0.3,1.74-0.48c0.45-0.18,0.92-0.31,1.39-0.41
		c0.47-0.09,0.87-0.22,1.21-0.37c1.61-0.49,2.94-0.89,3.98-1.18c1.04-0.29,2.02-0.6,2.94-0.91c0.91-0.31,1.86-0.65,2.82-1.02
		C63.9,74,65,73.56,66.25,73.05c6.57-2.62,11.55-5.69,14.95-9.23c3.39-3.53,5.61-7.91,6.66-13.13c0.74-3.05,0.77-6,0.08-8.86
		c-0.69-2.85-1.97-5.46-3.84-7.82c-1.87-2.36-4.32-4.36-7.33-6.01c-3.02-1.65-6.53-2.73-10.55-3.26c-3.26-0.41-6.42-0.49-9.49-0.23
		C53.67,24.78,50.54,25.13,47.33,25.59z"/>
	<path class="st0" d="M149.53,70.05c-0.75,2.48-1.71,4.9-2.88,7.26c-1.17,2.37-2.6,4.48-4.28,6.33c-1.68,1.86-3.64,3.36-5.87,4.51
		c-2.23,1.15-4.78,1.72-7.66,1.72c-1.86-0.09-3.33-0.25-4.41-0.5c-1.08-0.24-2.13-0.61-3.15-1.09c-1.81-0.53-3.37-1.38-4.67-2.55
		c-1.3-1.17-2.4-2.53-3.28-4.08c-0.88-1.55-1.56-3.19-2.02-4.94c-0.46-1.75-0.76-3.44-0.9-5.07c-0.22-2.87,0.02-5.79,0.73-8.75
		c0.71-2.96,1.83-5.69,3.38-8.19c1.55-2.5,3.49-4.64,5.83-6.43c2.34-1.79,5.02-2.97,8.02-3.55c1.55-0.27,3.12-0.35,4.71-0.27
		c1.59,0.09,3.14,0.4,4.64,0.93c1.24,0.44,2.39,0.95,3.45,1.52c1.06,0.58,2.08,1.3,3.05,2.19c1.28,1.15,2.36,2.48,3.25,3.98
		c0.88,1.5,1.52,3.07,1.92,4.71c0.49,2.08,0.71,4.13,0.66,6.17C150.02,65.98,149.84,68.01,149.53,70.05z M132.36,81.25
		c1.33-0.57,2.49-1.34,3.48-2.29c0.99-0.95,1.87-2,2.62-3.15c0.75-1.15,1.38-2.38,1.89-3.68c0.51-1.3,0.96-2.62,1.36-3.94
		c0.27-1.68,0.41-3.4,0.43-5.17c0.02-1.77-0.34-3.45-1.09-5.04c-0.62-1.33-1.56-2.46-2.82-3.41c-1.26-0.95-2.64-1.61-4.14-1.99
		c-1.5-0.38-3.02-0.45-4.54-0.23c-1.52,0.22-2.88,0.82-4.08,1.79c-1.68,1.42-3.04,3-4.08,4.74c-1.04,1.75-1.82,3.68-2.35,5.8
		c-0.44,1.68-0.69,3.45-0.73,5.3c-0.04,1.86,0.24,3.62,0.86,5.3c0.49,1.24,1.2,2.36,2.15,3.38c0.95,1.02,2.02,1.81,3.22,2.39
		c1.19,0.57,2.46,0.9,3.81,0.96C129.7,82.08,131.04,81.83,132.36,81.25z"/>
	<path class="st0" d="M182.75,47.64c0.27-0.88,0.7-1.61,1.29-2.19c0.6-0.57,1.25-0.95,1.96-1.13c0.71-0.18,1.43-0.13,2.15,0.13
		c0.73,0.27,1.36,0.8,1.89,1.59c0.18,0.22,0.34,0.49,0.5,0.8c0.15,0.31,0.23,0.6,0.23,0.86c0.09,6.32,0.05,12.63-0.1,18.93
		c-0.16,6.3-0.41,12.61-0.76,18.93c0,1.02-0.32,1.81-0.96,2.39c-0.64,0.57-1.37,0.94-2.19,1.09c-0.82,0.15-1.65,0.07-2.49-0.27
		c-0.84-0.33-1.46-0.9-1.86-1.69c-0.04-0.04-0.07-0.09-0.07-0.13v0.13c-2.87-4.73-5.9-9.27-9.08-13.62
		c-3.18-4.35-6.5-8.67-9.94-12.96v14.98c0,2.03,0,3.74,0,5.1c0,1.37-0.02,2.49-0.07,3.35c-0.04,0.86-0.1,1.54-0.17,2.02
		c-0.07,0.49-0.17,0.91-0.3,1.26c-0.4,1.06-1.01,1.77-1.82,2.12c-0.82,0.35-1.65,0.44-2.49,0.27c-0.84-0.18-1.57-0.62-2.19-1.33
		c-0.62-0.71-0.93-1.59-0.93-2.65c0-0.62,0-1.59,0-2.92c0-1.33,0-2.83,0-4.51c0-1.68,0-3.48,0-5.4c0-1.92,0-3.81,0-5.67
		s-0.01-3.59-0.03-5.2c-0.02-1.61-0.03-2.97-0.03-4.08c0-1.5-0.02-2.99-0.07-4.48c-0.04-1.48-0.04-2.97,0-4.48
		c0-0.75,0.19-1.39,0.56-1.92c0.38-0.53,0.85-0.94,1.43-1.23c0.57-0.29,1.19-0.45,1.86-0.5c0.66-0.04,1.3,0.04,1.92,0.27
		c0.53,0.18,1.07,0.54,1.62,1.09c0.55,0.55,1.09,1.15,1.62,1.79c0.53,0.64,1.03,1.28,1.49,1.92c0.46,0.64,0.85,1.16,1.16,1.56
		c1.15,1.42,2.48,3.04,3.98,4.87c1.5,1.83,2.89,3.57,4.18,5.2c1.28,1.68,2.53,3.36,3.75,5.04c1.21,1.68,2.4,3.36,3.55,5.04
		c0.13-4.02,0.22-8.02,0.27-12c0.04-3.98,0.07-7.98,0.07-12L182.75,47.64z"/>
	<path class="st0" d="M220.87,78.73c0.8,0.04,1.49,0.25,2.09,0.63c0.6,0.38,1.08,0.83,1.46,1.36s0.6,1.14,0.66,1.82
		c0.07,0.69-0.08,1.38-0.43,2.09c-0.13,0.31-0.41,0.67-0.83,1.09c-0.42,0.42-0.81,0.67-1.16,0.76c-2.83,0.84-5.74,1.36-8.72,1.56
		c-2.98,0.2-5.93,0.14-8.85-0.17c-0.84-0.09-1.76-0.18-2.75-0.27c-0.99-0.09-1.87-0.38-2.62-0.86c-1.37-0.88-2.06-2.14-2.06-3.78
		V54.73c-0.49-0.35-0.88-0.8-1.19-1.33c-0.31-0.53-0.5-1.09-0.56-1.69c-0.07-0.6,0.01-1.17,0.23-1.72c0.22-0.55,0.6-1.03,1.13-1.43
		c0.88-0.71,1.9-1.18,3.05-1.43c1.15-0.24,2.28-0.45,3.38-0.63c2.3-0.35,4.6-0.53,6.9-0.53c2.3,0,4.64-0.02,7.03-0.07
		c0.71,0,1.53-0.06,2.45-0.17c0.93-0.11,1.75-0.03,2.45,0.23c0.84,0.31,1.5,0.8,1.99,1.46s0.77,1.37,0.86,2.12
		c0.09,0.75-0.06,1.48-0.43,2.19c-0.38,0.71-1.03,1.26-1.96,1.66c-1.11,0.44-2.29,0.64-3.55,0.6c-1.26-0.04-2.46-0.07-3.61-0.07
		c-1.68,0-3.36,0.02-5.04,0.07c-1.68,0.04-3.36,0.18-5.04,0.4v9.22c1.59,0.09,3.18,0.09,4.77,0c1.59-0.09,3.18-0.2,4.77-0.33
		c0.71-0.04,1.41-0.11,2.12-0.2c0.71-0.09,1.44-0.09,2.19,0c0.97,0.13,1.72,0.53,2.25,1.19c0.53,0.66,0.85,1.4,0.96,2.22
		c0.11,0.82-0.03,1.62-0.43,2.42s-1.04,1.37-1.92,1.72c-0.75,0.31-1.77,0.54-3.05,0.7c-1.28,0.16-2.63,0.27-4.04,0.33
		c-1.42,0.07-2.81,0.1-4.18,0.1c-1.37,0-2.52-0.02-3.45-0.07v8.15c2.43,0.31,4.88,0.35,7.36,0.13c2.47-0.22,4.91-0.64,7.29-1.26
		H220.87z"/>
	<path class="st0" d="M239.43,85.3c-0.13,1.1-0.6,2.01-1.39,2.72c-0.8,0.71-1.66,1.16-2.59,1.36s-1.78,0.1-2.55-0.3
		c-0.77-0.4-1.18-1.19-1.23-2.39c-0.22-5.08-0.33-10.35-0.33-15.81c0-5.46,0-10.88,0-16.28c-0.71-0.27-1.24-0.66-1.59-1.19
		s-0.56-1.12-0.63-1.76c-0.07-0.64,0.01-1.29,0.23-1.96c0.22-0.66,0.55-1.24,0.99-1.72c0.49-0.53,1.15-1.02,1.99-1.46
		c0.84-0.44,1.76-0.85,2.75-1.23c0.99-0.38,1.98-0.7,2.95-0.96c0.97-0.27,1.79-0.46,2.45-0.6c2.78-0.57,5.59-0.56,8.42,0.03
		c2.83,0.6,5.31,1.67,7.46,3.22c2.14,1.55,3.75,3.56,4.81,6.03c1.06,2.48,1.17,5.3,0.33,8.49c-0.27,0.88-0.6,1.77-0.99,2.65
		c-0.4,0.88-0.86,1.7-1.39,2.45c-0.75,1.15-1.64,2.17-2.65,3.05c-1.02,0.88-2.12,1.7-3.31,2.45c0.84,0.88,1.63,1.81,2.39,2.78
		c0.75,0.97,1.59,1.86,2.52,2.65c0.35,0.31,0.87,0.8,1.56,1.46c0.68,0.66,1.35,1.37,1.99,2.12c0.64,0.75,1.2,1.49,1.69,2.22
		c0.49,0.73,0.71,1.34,0.66,1.82c-0.04,0.84-0.28,1.6-0.7,2.29c-0.42,0.69-0.93,1.22-1.52,1.59c-0.6,0.38-1.25,0.56-1.96,0.56
		s-1.41-0.24-2.12-0.73c-0.79-0.62-1.55-1.35-2.25-2.19c-0.71-0.84-1.39-1.61-2.05-2.32c-1.46-1.59-2.88-3.19-4.28-4.81
		c-1.39-1.61-2.82-3.19-4.28-4.74c-0.88,0.18-1.78,0.3-2.69,0.36c-0.91,0.07-1.8,0.14-2.69,0.23v9.41V85.3z M251.3,53.21
		c-1.77-1.06-3.7-1.66-5.8-1.79c-2.1-0.13-4.12,0.16-6.07,0.86v14.98c1.99-0.13,3.95-0.39,5.87-0.76c1.92-0.38,3.7-1.2,5.34-2.49
		c0.88-0.71,1.6-1.54,2.15-2.49c0.55-0.95,0.88-1.92,0.99-2.92c0.11-0.99-0.02-1.97-0.4-2.92C253.01,54.74,252.32,53.91,251.3,53.21
		z"/>
	<path class="st0" d="M306.86,70.05c-0.75,2.48-1.71,4.9-2.88,7.26c-1.17,2.37-2.6,4.48-4.28,6.33c-1.68,1.86-3.64,3.36-5.87,4.51
		c-2.23,1.15-4.78,1.72-7.66,1.72c-1.86-0.09-3.33-0.25-4.41-0.5c-1.08-0.24-2.13-0.61-3.15-1.09c-1.81-0.53-3.37-1.38-4.67-2.55
		c-1.3-1.17-2.4-2.53-3.28-4.08c-0.88-1.55-1.56-3.19-2.02-4.94c-0.46-1.75-0.76-3.44-0.89-5.07c-0.22-2.87,0.02-5.79,0.73-8.75
		c0.71-2.96,1.83-5.69,3.38-8.19c1.55-2.5,3.49-4.64,5.83-6.43c2.34-1.79,5.02-2.97,8.02-3.55c1.55-0.27,3.12-0.35,4.71-0.27
		c1.59,0.09,3.14,0.4,4.64,0.93c1.24,0.44,2.39,0.95,3.45,1.52c1.06,0.58,2.08,1.3,3.05,2.19c1.28,1.15,2.36,2.48,3.25,3.98
		c0.88,1.5,1.53,3.07,1.92,4.71c0.49,2.08,0.71,4.13,0.66,6.17C307.34,65.98,307.17,68.01,306.86,70.05z M289.69,81.25
		c1.33-0.57,2.49-1.34,3.48-2.29c0.99-0.95,1.87-2,2.62-3.15c0.75-1.15,1.38-2.38,1.89-3.68c0.51-1.3,0.96-2.62,1.36-3.94
		c0.27-1.68,0.41-3.4,0.43-5.17c0.02-1.77-0.34-3.45-1.09-5.04c-0.62-1.33-1.56-2.46-2.82-3.41c-1.26-0.95-2.64-1.61-4.14-1.99
		c-1.5-0.38-3.02-0.45-4.54-0.23c-1.53,0.22-2.88,0.82-4.08,1.79c-1.68,1.42-3.04,3-4.08,4.74c-1.04,1.75-1.82,3.68-2.35,5.8
		c-0.44,1.68-0.69,3.45-0.73,5.3c-0.04,1.86,0.24,3.62,0.86,5.3c0.49,1.24,1.2,2.36,2.15,3.38c0.95,1.02,2.02,1.81,3.21,2.39
		c1.19,0.57,2.46,0.9,3.81,0.96C287.02,82.08,288.36,81.83,289.69,81.25z"/>
</g>
</svg>
